<svg width="18" height="18" viewBox="0 0 18 18" fill="none" xmlns="http://www.w3.org/2000/svg">
<path d="M8.87089 12.5755L14.8446 6.30589C14.9444 6.20128 15 6.06229 15 5.91776C15 5.77324 14.9444 5.63425 14.8446 5.52964L14.8379 5.52289C14.7895 5.472 14.7314 5.43148 14.6669 5.40379C14.6024 5.3761 14.5329 5.36182 14.4627 5.36182C14.3925 5.36182 14.3231 5.3761 14.2586 5.40379C14.1941 5.43148 14.1359 5.472 14.0875 5.52289L8.46252 11.4269L2.83977 5.52289C2.79143 5.472 2.73323 5.43148 2.66874 5.40379C2.60424 5.3761 2.53478 5.36182 2.46458 5.36182C2.39439 5.36182 2.32493 5.3761 2.26043 5.40379C2.19593 5.43148 2.13774 5.472 2.0894 5.52289L2.08265 5.52964C1.98292 5.63425 1.92729 5.77323 1.92729 5.91776C1.92729 6.06229 1.98292 6.20128 2.08265 6.30589L8.05639 12.5755C8.10893 12.6307 8.17211 12.6745 8.24212 12.7045C8.31212 12.7345 8.38749 12.75 8.46364 12.75C8.5398 12.75 8.61517 12.7345 8.68517 12.7045C8.75518 12.6745 8.81836 12.6307 8.87089 12.5755Z" fill="#333333"/>
</svg>
