<svg width="209" height="209" viewBox="0 0 209 209" fill="none" xmlns="http://www.w3.org/2000/svg">
<path fill-rule="evenodd" clip-rule="evenodd" d="M104.5 26.125C84.9062 26.125 67.925 31.35 53.5562 41.8L64.0063 50.9438C75.7625 43.1063 88.825 39.1875 104.5 39.1875C147.606 39.1875 182.875 74.4563 182.875 117.562H195.938C195.938 66.6187 155.444 26.125 104.5 26.125ZM13.0625 39.1875L33.9625 58.7812C20.9 74.4563 13.0625 95.3562 13.0625 117.562H26.125C26.125 97.9688 32.6563 80.9875 44.4125 67.925L73.15 94.05C67.925 100.581 65.3125 108.419 65.3125 117.562C65.3125 139.769 82.2937 156.75 104.5 156.75C114.95 156.75 124.094 152.831 130.625 146.3L169.812 182.875L178.956 173.731L22.2063 30.0437L13.0625 39.1875ZM82.2938 103.194L120.175 138.463C116.256 141.075 111.031 143.688 104.5 143.688C90.1312 143.688 78.375 131.931 78.375 117.562C78.375 112.337 79.6813 107.113 82.2938 103.194V103.194ZM143.688 124.094L130.625 112.338C128.012 101.888 118.869 92.7438 107.112 91.4375L94.05 79.6812C97.9687 78.375 100.581 78.375 104.5 78.375C126.706 78.375 143.688 95.3562 143.688 117.562V124.094Z" fill="black"/>
</svg>
