<svg width="24" height="24" viewBox="0 0 24 24" fill="none" xmlns="http://www.w3.org/2000/svg">
<path d="M21.3938 20.6063L17.2219 16.425C18.6664 14.7737 19.4126 12.6257 19.3029 10.4345C19.1933 8.24333 18.2363 6.18054 16.6341 4.68178C15.0319 3.18301 12.9099 2.3656 10.7163 2.40218C8.52267 2.43875 6.42912 3.32644 4.87778 4.87778C3.32644 6.42912 2.43875 8.52267 2.40218 10.7163C2.3656 12.9099 3.18301 15.0319 4.68178 16.6341C6.18054 18.2363 8.24333 19.1933 10.4345 19.3029C12.6257 19.4126 14.7737 18.6664 16.425 17.2219L20.6063 21.3938C20.7107 21.4982 20.8523 21.5569 21 21.5569C21.1477 21.5569 21.2893 21.4982 21.3938 21.3938C21.4982 21.2893 21.5569 21.1477 21.5569 21C21.5569 20.8523 21.4982 20.7107 21.3938 20.6063ZM3.5625 10.875C3.5625 9.42872 3.99137 8.01493 4.79488 6.81239C5.59838 5.60986 6.74044 4.67259 8.07663 4.11913C9.41281 3.56566 10.8831 3.42085 12.3016 3.70301C13.7201 3.98516 15.023 4.68161 16.0457 5.70428C17.0684 6.72695 17.7648 8.02991 18.047 9.4484C18.3291 10.8669 18.1843 12.3372 17.6309 13.6734C17.0774 15.0096 16.1401 16.1516 14.9376 16.9551C13.7351 17.7586 12.3213 18.1875 10.875 18.1875C8.93637 18.185 7.07784 17.4138 5.70702 16.043C4.3362 14.6722 3.56498 12.8136 3.5625 10.875Z" fill="#333333"/>
</svg>
